<?xml version="1.0" encoding="utf-8"?>
<!-- Generator: Adobe Illustrator 28.3.0, SVG Export Plug-In . SVG Version: 6.00 Build 0)  -->
<svg version="1.1" id="Layer_1" xmlns="http://www.w3.org/2000/svg" xmlns:xlink="http://www.w3.org/1999/xlink" x="0px" y="0px"
	 viewBox="0 0 500 500" style="enable-background:new 0 0 500 500;" xml:space="preserve">
<style type="text/css">
	.st0{fill:#7F8956;}
	.st1{fill:none;}
	.st2{fill:#BDC98B;}
	.st3{fill:#2D9144;}
	.st4{fill:#FFFFFF;}
</style>
<path class="st0" d="M353.9,228.1c1.7,0,3.4,0.1,5.1,0.1c35.4,0,68.8-8.7,98.1-24c-19.8-88-94.3-155.4-185.9-164.5
	c12.3,68.1-1.6,108.6-32.4,153.4c-45.9-29.8-73.5-62.8-86.8-130.5C93.5,93.1,51,149.9,40.3,217.4c23.2,13.6,50.2,21.5,79.1,21.5
	c1.8,0,3.7,0,5.5-0.1c0.3,4.2,0.9,8.3,1.9,12.2c8.4,34.9,20.3,49.7,32.8,88.5c16.3,50.7,7.3,70.5,9.3,107.8
	c25,10.4,52.4,16.1,81.2,16.1c17.4,0,34.4-2.1,50.6-6.1c-3.9-21.7-5-44.5,2.1-67.1c10,2.4,17.5,2.1,32.5,5.4
	c19.5,4.3,26.9-21,30.1-46.1c1.6-12.8-4.7-20.4-2.1-29.4c9.7,0.9,21.7,3.3,23.7-8.3c2.1-11.7-25.8-46.8-28.3-61
	C357.2,243,355.6,235.4,353.9,228.1L353.9,228.1L353.9,228.1z"/>
<g>
	<path class="st1" d="M135.2,173.3c10.2-16,24-29.1,40.4-38.5c-13.4-20.5-23.5-43.3-29.5-67.7c-52.5,29.9-91,81.8-102.8,143
		c21.8,13,47.2,20.5,74.4,20.8C117.8,211.6,123.9,191.1,135.2,173.3L135.2,173.3L135.2,173.3z"/>
	<path class="st1" d="M358.6,313.9c1.4-1.3,3.3-1.9,5.2-1.7c0.9,0.1,1.8,0.2,2.8,0.3c12.4,1.3,13.1,0.1,13.6-2.9
		c0.6-4.2-8.8-20.1-13.8-28.7c-6.8-11.5-13.1-22.3-14.5-29.9c-1-6-2.2-11.6-3.4-17.1c-41.7-2-80.4-15.7-112.8-37.9
		c-26.7,27.2-62.8,45-103,48.3c0.2,1.4,0.5,2.8,0.9,4.2c4.5,18.8,10,31.3,16.3,45.8c5,11.5,10.7,24.5,16.4,42.2
		c11.7,36.4,10.8,57.4,9.9,79.6c-0.4,9.2-0.8,18.7-0.3,29.6c6.4,2.8,16.2,6.6,28.6,9.8c14.7,3.3,30,5,45.8,5
		c12.7,0,25.2-1.1,37.2-3.3c2.1-0.5,4.2-1,6.3-1.7c-3.2-20.5-2.4-42.8,2.5-67.7c0.4-1.8,1.5-3.5,3-4.5s3.5-1.3,5.3-0.9
		c8.9,2.1,18.7,1.9,33.9,0.7c19.4-1.6,21.2-2.8,20.4-29.1c-4.5,0.6-9.5,1-14.9,1c-17.9,0-39.1-3.8-51-13c-3-2.3-3.5-6.6-1.2-9.6
		s6.6-3.5,9.6-1.2c11.4,8.8,39.6,12.1,56.8,9.1c-0.3-3-0.5-4.8-0.8-6.6c-0.5-3.5-1-6.5-0.8-14.7C356.3,317,357.1,315.2,358.6,313.9
		L358.6,313.9L358.6,313.9z M318.8,276.5c-5.5,0-9.9-4.4-9.9-9.9s4.4-9.9,9.9-9.9s9.9,4.4,9.9,9.9S324.3,276.5,318.8,276.5z"/>
	<path class="st2" d="M212.5,120.9c19.1-3.9,36.3-5,51.7-3.1c2.9-11.6,4.4-23.7,4.4-36.2c0-14.5-2.1-28.5-6-41.7
		c-4.2-0.2-8.5-0.4-12.8-0.4c-32.7,0-63.7,7.5-91.3,20.9c5.6,24.7,15.7,47.7,29.3,68.2C195.7,125.3,203.9,122.7,212.5,120.9
		L212.5,120.9L212.5,120.9z"/>
	<path class="st1" d="M277.8,120.3c10.9,2.8,20.8,7.2,29.8,13.3c24.1,16.4,40.8,44.3,51.7,86.7c34,0,66.1-8.4,94.4-23.2
		c-21.3-82-90.8-144.7-176.4-155.8c3.3,12.9,5.1,26.4,5.1,40.3S280.8,107.9,277.8,120.3L277.8,120.3L277.8,120.3z"/>
	<path class="st1" d="M162.2,415.4c0.9-20.9,1.8-40.7-9.2-74.8c-5.5-17-10.8-29.1-15.9-40.9c-6.3-14.5-12.3-28.2-17.1-48.1
		c-0.5-2.3-1-4.6-1.3-6.9c-28.1-0.1-54.6-7.4-77.6-20.1c-1,8.3-1.5,16.8-1.5,25.3c0,84.6,50.1,157.6,122.2,191
		C161.5,431.7,161.9,423.4,162.2,415.4L162.2,415.4L162.2,415.4z"/>
	<path class="st1" d="M456.8,211c-28.5,14.2-60.5,22.5-94.3,23c1,4.7,2,9.5,2.8,14.5c0.9,5.1,7.2,15.9,12.8,25.3
		c10.7,18.1,17,29.7,15.5,38.1c-2.5,14-14.5,15.1-23.6,14.6c0.1,1.9,0.3,3.3,0.6,5c0.5,3.2,1.1,7.2,1.5,16.6
		c1.2,32.6,0.4,46-32.9,48.6c-12.9,1-22.4,1.4-31,0.3c-3.4,20.3-3.8,38.6-1.2,55.5c88.4-24.9,153.4-106.3,153.4-202.6
		C460.4,236.7,459.2,223.6,456.8,211L456.8,211L456.8,211z"/>
	<path class="st2" d="M299.9,145c-7.8-5.3-16.4-9.1-25.9-11.4c-6.5,19.2-16.4,36.8-29.1,52.1c29,19.4,63.2,31.7,100.1,34.2
		C335,183,320.3,158.9,299.9,145L299.9,145L299.9,145z"/>
	<path class="st2" d="M146.8,180.6c-9.9,15.5-15.2,33.2-15.4,49.9c36.1-2.9,68.6-18.7,92.9-42.8c-15.4-12-29.1-26-40.8-41.6
		C168.6,154.4,156,166.2,146.8,180.6z"/>
	<path class="st3" d="M215.3,134.4c-6.6,1.4-13,3.3-19.1,5.7c10.8,14.1,23.4,26.7,37.5,37.5c11.4-13.6,20.5-29.3,26.5-46.4
		C246.9,129.9,232,131,215.3,134.4L215.3,134.4L215.3,134.4z"/>
	<circle fill="currentColor" cx="318.8" cy="266.6" r="9.9"/>
</g>
<g>
	<path class="st1" d="M345,219.9c-10-36.8-24.6-61-45.1-74.9c-7.8-5.3-16.4-9.1-25.9-11.4c-6.5,19.2-16.4,36.8-29.1,52.1
		C273.9,205.1,308.1,217.4,345,219.9L345,219.9L345,219.9z"/>
	<path class="st1" d="M212.5,120.9c19.1-3.9,36.3-5,51.7-3.1c2.9-11.6,4.4-23.7,4.4-36.2c0-14.5-2.1-28.5-6-41.7
		c-4.2-0.2-8.5-0.4-12.8-0.4c-32.7,0-63.7,7.5-91.3,20.9c5.6,24.7,15.7,47.7,29.3,68.2C195.7,125.3,203.9,122.7,212.5,120.9
		L212.5,120.9L212.5,120.9z"/>
	<path class="st1" d="M183.5,146.1c-14.9,8.3-27.5,20.1-36.7,34.5c-9.9,15.5-15.2,33.2-15.4,49.9c36.1-2.9,68.6-18.7,92.9-42.8
		C209,175.7,195.2,161.7,183.5,146.1z"/>
	<path class="st1" d="M260.2,131.2c-13.3-1.3-28.3-0.2-44.9,3.2c-6.6,1.4-13,3.3-19.1,5.7c10.8,14.1,23.4,26.7,37.5,37.5
		C245.1,164,254.2,148.3,260.2,131.2z"/>
	<path class="st1" d="M277.8,120.3c10.9,2.8,20.8,7.2,29.8,13.3c24.1,16.4,40.8,44.3,51.7,86.7c34,0,66.1-8.4,94.4-23.2
		c-21.3-82-90.8-144.7-176.4-155.8c3.3,12.9,5.1,26.4,5.1,40.3S280.8,107.9,277.8,120.3L277.8,120.3L277.8,120.3z"/>
	<path class="st1" d="M135.2,173.3c10.2-16,24-29.1,40.4-38.5c-13.4-20.5-23.5-43.3-29.5-67.7c-52.5,29.9-91,81.8-102.8,143
		c21.8,13,47.2,20.5,74.4,20.8C117.8,211.6,123.9,191.1,135.2,173.3L135.2,173.3L135.2,173.3z"/>
	<path class="st1" d="M456.8,211c-28.5,14.2-60.5,22.5-94.3,23c1,4.7,2,9.5,2.8,14.5c0.9,5.1,7.2,15.9,12.8,25.3
		c10.7,18.1,17,29.7,15.5,38.1c-2.5,14-14.5,15.1-23.6,14.6c0.1,1.9,0.3,3.3,0.6,5c0.5,3.2,1.1,7.2,1.5,16.6
		c1.2,32.6,0.4,46-32.9,48.6c-12.9,1-22.4,1.4-31,0.3c-3.4,20.3-3.8,38.6-1.2,55.5c88.4-24.9,153.4-106.3,153.4-202.6
		C460.4,236.7,459.2,223.6,456.8,211L456.8,211L456.8,211z"/>
	<path class="st1" d="M338.2,383.1c19.4-1.6,21.2-2.8,20.4-29.1c-4.5,0.6-9.5,1-14.9,1c-17.9,0-39.1-3.8-51-13
		c-3-2.3-3.5-6.6-1.2-9.6s6.6-3.5,9.6-1.2c11.4,8.8,39.6,12.1,56.8,9.1c-0.3-3-0.5-4.8-0.8-6.6c-0.5-3.5-1-6.5-0.8-14.7
		c0-1.9,0.9-3.7,2.3-5s3.3-1.9,5.2-1.7c0.9,0.1,1.8,0.2,2.8,0.3c12.4,1.3,13.1,0.1,13.6-2.9c0.6-4.2-8.8-20.1-13.8-28.7
		c-6.8-11.5-13.1-22.3-14.5-29.9c-1-6-2.2-11.6-3.4-17.1c-41.7-2-80.4-15.7-112.8-37.9c-26.7,27.2-62.8,45-103,48.3
		c0.2,1.4,0.5,2.8,0.9,4.2c4.5,18.8,10,31.3,16.3,45.8c5,11.5,10.7,24.5,16.4,42.2c11.7,36.4,10.8,57.4,9.9,79.6
		c-0.4,9.2-0.8,18.7-0.3,29.6c6.4,2.8,16.2,6.6,28.6,9.8c14.7,3.3,30,5,45.8,5c12.7,0,25.2-1.1,37.2-3.3c2.1-0.5,4.2-1,6.3-1.7
		c-3.2-20.5-2.4-42.8,2.5-67.7c0.4-1.8,1.5-3.5,3-4.5s3.5-1.3,5.3-0.9C313.2,384.6,323,384.3,338.2,383.1L338.2,383.1L338.2,383.1z"
		/>
	<path class="st1" d="M137.1,299.7c-6.3-14.5-12.3-28.2-17.1-48.1c-0.5-2.3-1-4.6-1.3-6.9c-28.1-0.1-54.6-7.4-77.6-20.1
		c-1,8.3-1.5,16.8-1.5,25.3c0,84.6,50.1,157.6,122.2,191c-0.2-9.3,0.1-17.6,0.4-25.7c0.9-20.9,1.8-40.7-9.2-74.8
		C147.5,323.6,142.2,311.5,137.1,299.7L137.1,299.7L137.1,299.7z"/>
	<path fill="currentColor" d="M250,25.8C126.4,25.8,25.8,126.4,25.8,250S126.4,474.2,250,474.2S474.2,373.6,474.2,250S373.6,25.8,250,25.8z
		 M453.7,197.2c-28.3,14.8-60.4,23.1-94.4,23.2c-10.9-42.5-27.6-70.4-51.7-86.7c-9-6.1-18.9-10.5-29.8-13.3
		c3-12.4,4.6-25.4,4.6-38.7s-1.8-27.4-5.1-40.3C362.9,52.5,432.5,115.2,453.7,197.2L453.7,197.2L453.7,197.2z M299.9,145
		c20.5,13.9,35.1,38.1,45.1,74.9c-36.9-2.5-71.1-14.8-100.1-34.2c12.7-15.3,22.6-32.9,29.1-52.1C283.5,135.9,292.1,139.7,299.9,145
		L299.9,145L299.9,145z M196.2,140.1c6.1-2.4,12.4-4.3,19.1-5.7c16.7-3.4,31.6-4.5,44.9-3.2c-6,17.1-15.1,32.8-26.5,46.4
		C219.7,166.8,207.1,154.1,196.2,140.1L196.2,140.1L196.2,140.1z M224.4,187.7c-24.3,24.1-56.8,39.9-92.9,42.8
		c0.2-16.6,5.5-34.3,15.4-49.9c9.2-14.5,21.8-26.2,36.7-34.5C195.2,161.7,209,175.7,224.4,187.7L224.4,187.7z M250,39.6
		c4.3,0,8.5,0.1,12.8,0.4c3.9,13.2,6,27.2,6,41.7c0,12.5-1.5,24.6-4.4,36.2c-15.4-1.9-32.6-0.8-51.7,3.1c-8.6,1.8-16.8,4.3-24.5,7.7
		c-13.6-20.4-23.7-43.5-29.3-68.2C186.3,47.1,217.3,39.6,250,39.6L250,39.6L250,39.6z M146.1,67.1c6,24.4,16.1,47.3,29.5,67.7
		c-16.4,9.4-30.2,22.4-40.4,38.5c-11.3,17.8-17.4,38.3-17.5,57.7c-27.1-0.3-52.5-7.9-74.4-20.8C55.2,148.9,93.6,97,146.1,67.1
		L146.1,67.1z M162.2,415.4c-0.4,8.1-0.7,16.4-0.4,25.7C89.7,407.6,39.6,334.6,39.6,250c0-8.6,0.5-17,1.5-25.3
		c23.1,12.7,49.5,19.9,77.6,20.1c0.3,2.3,0.8,4.6,1.3,6.9c4.8,19.9,10.8,33.6,17.1,48.1c5.1,11.7,10.4,23.9,15.9,40.9
		C164,374.7,163.1,394.4,162.2,415.4L162.2,415.4L162.2,415.4z M299,383.4c-1.6,1-2.7,2.6-3,4.5c-4.9,24.9-5.7,47.1-2.5,67.7
		c-2.1,0.6-4.2,1.1-6.3,1.7c-12.1,2.2-24.5,3.3-37.2,3.3c-15.7,0-31-1.7-45.8-5c-12.3-3.2-22.2-7-28.6-9.8
		c-0.6-10.9-0.1-20.4,0.3-29.6c1-22.2,1.9-43.2-9.9-79.6c-5.7-17.6-11.4-30.7-16.4-42.2c-6.3-14.5-11.8-27.1-16.3-45.9
		c-0.3-1.4-0.6-2.8-0.9-4.2c40.2-3.2,76.3-21.1,103-48.3c32.4,22.2,71.1,35.9,112.8,37.9c1.2,5.5,2.4,11.2,3.4,17.1
		c1.3,7.6,7.7,18.4,14.5,29.9c5,8.5,14.4,24.5,13.8,28.7c-0.5,3-1.2,4.2-13.6,2.9c-0.9-0.1-1.9-0.2-2.8-0.3
		c-1.9-0.2-3.8,0.5-5.2,1.7s-2.2,3.1-2.3,5c-0.2,8.3,0.3,11.3,0.8,14.7c0.3,1.7,0.6,3.6,0.8,6.6c-17.2,3-45.4-0.3-56.8-9.1
		c-3-2.3-7.3-1.8-9.6,1.2s-1.8,7.3,1.2,9.6c11.9,9.2,33.1,13,51,13c5.4,0,10.5-0.4,14.9-1c0.8,26.3-1,27.6-20.4,29.1
		c-15.1,1.2-25,1.5-33.9-0.7C302.5,382,300.6,382.4,299,383.4L299,383.4L299,383.4z M307,452.6c-2.5-16.9-2.1-35.2,1.2-55.5
		c8.6,1.1,18.1,0.7,31-0.3c33.2-2.7,34.1-16,32.9-48.6c-0.4-9.4-1-13.4-1.5-16.6c-0.3-1.7-0.5-3-0.6-5c9.1,0.5,21-0.6,23.6-14.6
		c1.5-8.4-4.9-20-15.5-38.1c-5.6-9.5-11.9-20.2-12.8-25.3c-0.9-5-1.8-9.8-2.8-14.5c33.8-0.5,65.8-8.8,94.3-23
		c2.4,12.6,3.6,25.7,3.6,39C460.5,346.3,395.5,427.7,307,452.6L307,452.6L307,452.6z"/>
</g>
</svg>
