<?xml version="1.0" encoding="UTF-8"?>
<svg id="Layer_1" data-name="Layer 1" xmlns="http://www.w3.org/2000/svg" version="1.1" viewBox="0 0 500 500">
  <defs>
    <style>
      .cls-1 {
        fill: #cde190;
      }

      .cls-1, .cls-2, .cls-3, .cls-4, .cls-5, .cls-6 {
        stroke-width: 0px;
      }

      .cls-2 {
        fill: #86941f;
      }

      .cls-3 {
        fill: #282828;
      }

      .cls-4 {
        fill: #3acc6f;
      }

      .cls-5 {
        fill: none;
      }

      .cls-6 {
        fill: #fff;
      }
    </style>
  </defs>
  <path class="cls-6" d="M250,4.2C114.5,4.2,4.2,114.5,4.2,250s110.3,245.8,245.8,245.8,245.8-110.3,245.8-245.8S385.5,4.2,250,4.2Z"/>
  <path class="cls-1" d="M356.8,227.5c1.7,0,75.9-8.8,106-24.6-20.3-90.4-96.9-159.7-191-169,12.6,70-4.3,106.7-36,152.7-41.1-34.5-66.3-61.3-86.5-129.2-60.1,31.3-103.8,89.7-114.8,159.1,23.8,14,85.1,22.1,86.9,22,8,52.1,54.5,96.7,45.2,214.2,25.7,10.7,74.3,27.6,135.4,10.3-4-22.3-5.1-45.7,2.2-69,10.3,2.5,79.3,11.7,64.3-41.8,1.6-13.2-4.8-21-2.2-30.2,10,.9,22.3,3.4,24.4-8.5,2.2-12-26.5-48.1-29.1-62.7-1.5-8-3.2-15.8-4.9-23.3h0Z"/>
  <path class="cls-5" d="M132,171.2c10.5-16.4,24.7-29.9,41.5-39.6-13.8-21.1-24.1-44.5-30.3-69.6-53.9,30.7-93.5,84.1-105.6,146.9,22.4,13.4,48.5,21.1,76.5,21.4.1-19.8,6.4-40.9,18-59.2h0Z"/>
  <path class="cls-5" d="M361.6,315.7c1.4-1.3,3.4-2,5.3-1.7.9.1,1.8.2,2.9.3,12.7,1.3,13.5.1,14-3,.6-4.3-9-20.7-14.2-29.5-7-11.8-13.5-22.9-14.9-30.7-1-6.2-2.3-11.9-3.5-17.6-42.8-2.1-82.6-16.1-115.9-38.9-27.4,27.9-64.5,46.2-105.8,49.6.2,1.4.5,2.9.9,4.3,4.6,19.3,10.3,32.2,16.7,47.1,5.1,11.8,11,25.2,16.9,43.4,12,37.4,11.1,59,10.2,81.8-.4,9.5-.8,19.2-.3,30.4,6.6,2.9,16.6,6.8,29.4,10.1,15.1,3.4,30.8,5.1,47.1,5.1s25.9-1.1,38.2-3.4c2.2-.5,4.3-1,6.5-1.7-3.3-21.1-2.5-44,2.6-69.6.4-1.8,1.5-3.6,3.1-4.6s3.6-1.3,5.4-.9c9.1,2.2,19.2,2,34.8.7,19.9-1.6,21.8-2.9,21-29.9-4.6.6-9.8,1-15.3,1-18.4,0-40.2-3.9-52.4-13.4-3.1-2.4-3.6-6.8-1.2-9.9s6.8-3.6,9.9-1.2c11.7,9,40.7,12.4,58.4,9.4-.3-3.1-.5-4.9-.8-6.8-.5-3.6-1-6.7-.8-15.1-.3-2.1.5-3.9,2.1-5.2h0ZM320.7,277.2c-5.7,0-10.2-4.5-10.2-10.2s4.5-10.2,10.2-10.2,10.2,4.5,10.2,10.2-4.5,10.2-10.2,10.2Z"/>
  <path class="cls-5" d="M278.6,116.7c11.2,2.9,21.4,7.4,30.6,13.7,24.8,16.9,41.9,45.5,53.1,89.1,34.9,0,67.9-8.6,97-23.8-21.9-84.3-93.3-148.7-181.3-160.1,3.4,13.3,5.2,27.1,5.2,41.4s-1.6,27-4.7,39.8h0Z"/>
  <path class="cls-5" d="M159.8,420c.9-21.5,1.8-41.8-9.5-76.9-5.7-17.5-11.1-29.9-16.3-42-6.5-14.9-12.6-29-17.6-49.4-.5-2.4-1-4.7-1.3-7.1-28.9-.1-56.1-7.6-79.7-20.7-1,8.5-1.5,17.3-1.5,26,0,86.9,51.5,161.9,125.6,196.3-.3-9.5.1-18,.4-26.2h0Z"/>
  <path class="cls-5" d="M462.5,209.9c-29.3,14.6-62.2,23.1-96.9,23.6,1,4.8,2.1,9.8,2.9,14.9.9,5.2,7.4,16.3,13.2,26,11,18.6,17.5,30.5,15.9,39.2-2.6,14.4-14.9,15.5-24.3,15,.1,2,.3,3.4.6,5.1.5,3.3,1.1,7.4,1.5,17.1,1.2,33.5.4,47.3-33.8,49.9-13.3,1-23,1.4-31.9.3-3.5,20.9-3.9,39.7-1.2,57,90.8-25.6,157.6-109.2,157.6-208.2,0-13.6-1.2-27-3.7-40h0Z"/>
  <g>
    <path class="cls-4" d="M211.5,117.3c19.6-4,37.3-5.1,53.1-3.2,3-11.9,4.5-24.4,4.5-37.2s-2.2-29.3-6.2-42.8c-4.3-.2-8.7-.4-13.2-.4-33.6,0-65.5,7.7-93.8,21.5,5.8,25.4,16.1,49,30.1,70.1,8.1-3.4,16.5-6.1,25.4-7.9h0Z"/>
    <path class="cls-4" d="M301.3,142.1c-8-5.4-16.9-9.4-26.6-11.7-6.7,19.7-16.9,37.8-29.9,53.5,29.8,19.9,64.9,32.6,102.9,35.1-10.3-37.9-25.4-62.7-46.3-77h0Z"/>
    <path class="cls-4" d="M144,178.7c-10.2,15.9-15.6,34.1-15.8,51.3,37.1-3,70.5-19.2,95.5-44-15.8-12.3-29.9-26.7-41.9-42.7-15.3,8.5-28.3,20.7-37.7,35.5Z"/>
  </g>
  <path class="cls-2" d="M214.3,131.2c-6.8,1.4-13.4,3.4-19.6,5.9,11.1,14.5,24,27.4,38.5,38.5,11.7-14,21.1-30.1,27.2-47.7-13.7-1.3-29-.2-46.1,3.3h0Z"/>
  <circle class="cls-3" cx="320.7" cy="267.1" r="10.2"/>
  <path class="cls-5" d="M347.6,219.1c-10.3-37.8-25.3-62.7-46.3-77-8-5.4-16.9-9.4-26.6-11.7-6.7,19.7-16.9,37.8-29.9,53.5,29.8,19.9,64.9,32.6,102.9,35.1h0Z"/>
  <path class="cls-5" d="M211.5,117.3c19.6-4,37.3-5.1,53.1-3.2,3-11.9,4.5-24.4,4.5-37.2s-2.2-29.3-6.2-42.8c-4.3-.2-8.7-.4-13.2-.4-33.6,0-65.5,7.7-93.8,21.5,5.8,25.4,16.1,49,30.1,70.1,8.1-3.4,16.5-6.1,25.4-7.9h0Z"/>
  <path class="cls-5" d="M181.7,143.2c-15.3,8.5-28.3,20.7-37.7,35.5-10.2,15.9-15.6,34.1-15.8,51.3,37.1-3,70.5-19.2,95.5-44-15.7-12.3-29.9-26.7-41.9-42.7Z"/>
  <path class="cls-5" d="M260.5,127.9c-13.7-1.3-29.1-.2-46.1,3.3-6.8,1.4-13.4,3.4-19.6,5.9,11.1,14.5,24,27.4,38.5,38.5,11.7-14,21.1-30.1,27.2-47.7Z"/>
  <path class="cls-5" d="M278.6,116.7c11.2,2.9,21.4,7.4,30.6,13.7,24.8,16.9,41.9,45.5,53.1,89.1,34.9,0,67.9-8.6,97-23.8-21.9-84.3-93.3-148.7-181.3-160.1,3.4,13.3,5.2,27.1,5.2,41.4s-1.6,27-4.7,39.8h0Z"/>
  <path class="cls-5" d="M132,171.2c10.5-16.4,24.7-29.9,41.5-39.6-13.8-21.1-24.1-44.5-30.3-69.6-53.9,30.7-93.5,84.1-105.6,146.9,22.4,13.4,48.5,21.1,76.5,21.4.1-19.8,6.4-40.9,18-59.2h0Z"/>
  <path class="cls-5" d="M462.5,209.9c-29.3,14.6-62.2,23.1-96.9,23.6,1,4.8,2.1,9.8,2.9,14.9.9,5.2,7.4,16.3,13.2,26,11,18.6,17.5,30.5,15.9,39.2-2.6,14.4-14.9,15.5-24.3,15,.1,2,.3,3.4.6,5.1.5,3.3,1.1,7.4,1.5,17.1,1.2,33.5.4,47.3-33.8,49.9-13.3,1-23,1.4-31.9.3-3.5,20.9-3.9,39.7-1.2,57,90.8-25.6,157.6-109.2,157.6-208.2,0-13.6-1.2-27-3.7-40h0Z"/>
  <path class="cls-5" d="M340.6,386.8c19.9-1.6,21.8-2.9,21-29.9-4.6.6-9.8,1-15.3,1-18.4,0-40.2-3.9-52.4-13.4-3.1-2.4-3.6-6.8-1.2-9.9s6.8-3.6,9.9-1.2c11.7,9,40.7,12.4,58.4,9.4-.3-3.1-.5-4.9-.8-6.8-.5-3.6-1-6.7-.8-15.1,0-2,.9-3.8,2.4-5.1s3.4-2,5.3-1.7c.9.1,1.8.2,2.9.3,12.7,1.3,13.5.1,14-3,.6-4.3-9-20.7-14.2-29.5-7-11.8-13.5-22.9-14.9-30.7-1-6.2-2.3-11.9-3.5-17.6-42.8-2.1-82.6-16.1-115.9-38.9-27.4,27.9-64.5,46.2-105.8,49.6.2,1.4.5,2.9.9,4.3,4.6,19.3,10.3,32.2,16.7,47.1,5.1,11.8,11,25.2,16.9,43.4,12,37.4,11.1,59,10.2,81.8-.4,9.5-.8,19.2-.3,30.4,6.6,2.9,16.6,6.8,29.4,10.1,15.1,3.4,30.8,5.1,47.1,5.1s25.9-1.1,38.2-3.4c2.2-.5,4.3-1,6.5-1.7-3.3-21.1-2.5-44,2.6-69.6.4-1.8,1.5-3.6,3.1-4.6s3.6-1.3,5.4-.9c8.8,2.2,18.9,1.8,34.5.6h0Z"/>
  <path class="cls-5" d="M134,301.1c-6.5-14.9-12.6-29-17.6-49.4-.5-2.4-1-4.7-1.3-7.1-28.9-.1-56.1-7.6-79.7-20.7-1,8.5-1.5,17.3-1.5,26,0,86.9,51.5,161.9,125.6,196.3-.2-9.6.1-18.1.4-26.4.9-21.5,1.8-41.8-9.5-76.9-5.7-17.3-11.1-29.7-16.3-41.8h0Z"/>
  <path class="cls-3" d="M250,19.6C123,19.6,19.6,123,19.6,250s103.4,230.4,230.4,230.4,230.4-103.4,230.4-230.4S377,19.6,250,19.6ZM459.3,195.7c-29.1,15.2-62.1,23.7-97,23.8-11.2-43.7-28.4-72.3-53.1-89.1-9.2-6.3-19.4-10.8-30.6-13.7,3.1-12.7,4.7-26.1,4.7-39.8s-1.8-28.2-5.2-41.4c88,11.4,159.5,75.8,181.3,160.1h0ZM301.3,142.1c21.1,14.3,36.1,39.2,46.3,77-37.9-2.6-73.1-15.2-102.9-35.1,13.1-15.7,23.2-33.8,29.9-53.5,9.8,2.4,18.6,6.3,26.6,11.7h0ZM194.7,137.1c6.3-2.5,12.7-4.4,19.6-5.9,17.2-3.5,32.5-4.6,46.1-3.3-6.2,17.6-15.5,33.7-27.2,47.7-14.4-11.1-27.3-24.1-38.5-38.5h0ZM223.7,186c-25,24.8-58.4,41-95.5,44,.2-17.1,5.7-35.2,15.8-51.3,9.5-14.9,22.4-26.9,37.7-35.5,11.9,16,26.1,30.4,41.9,42.7h0ZM250,33.8c4.4,0,8.7.1,13.2.4,4,13.6,6.2,27.9,6.2,42.8s-1.5,25.3-4.5,37.2c-15.8-2-33.5-.8-53.1,3.2-8.8,1.8-17.3,4.4-25.2,7.9-14-21-24.4-44.7-30.1-70.1,28.2-13.8,60-21.5,93.6-21.5h0ZM143.2,62.1c6.2,25.1,16.5,48.6,30.3,69.6-16.9,9.7-31,23-41.5,39.6-11.6,18.3-17.9,39.4-18,59.3-27.8-.3-53.9-8.1-76.5-21.4,12.2-63,51.7-116.3,105.6-147h0ZM159.8,420c-.4,8.3-.7,16.9-.4,26.4-74.1-34.4-125.6-109.4-125.6-196.4s.5-17.5,1.5-26c23.7,13.1,50.9,20.4,79.7,20.7.3,2.4.8,4.7,1.3,7.1,4.9,20.4,11.1,34.5,17.6,49.4,5.2,12,10.7,24.6,16.3,42,11.3,34.9,10.4,55.2,9.5,76.8h0ZM300.4,387.1c-1.6,1-2.8,2.7-3.1,4.6-5,25.6-5.9,48.4-2.6,69.6-2.2.6-4.3,1.1-6.5,1.7-12.4,2.3-25.2,3.4-38.2,3.4s-31.9-1.7-47.1-5.1c-12.6-3.3-22.8-7.2-29.4-10.1-.6-11.2-.1-21,.3-30.4,1-22.8,2-44.4-10.2-81.8-5.9-18.1-11.7-31.5-16.9-43.4-6.5-14.9-12.1-27.8-16.7-47.2-.3-1.4-.6-2.9-.9-4.3,41.3-3.3,78.4-21.7,105.8-49.6,33.3,22.8,73.1,36.9,115.9,38.9,1.2,5.7,2.5,11.5,3.5,17.6,1.3,7.8,7.9,18.9,14.9,30.7,5.1,8.7,14.8,25.2,14.2,29.5-.5,3.1-1.2,4.3-14,3-.9-.1-2-.2-2.9-.3-2-.2-3.9.5-5.3,1.7s-2.3,3.2-2.4,5.1c-.2,8.5.3,11.6.8,15.1.3,1.7.6,3.7.8,6.8-17.7,3.1-46.7-.3-58.4-9.4-3.1-2.4-7.5-1.8-9.9,1.2s-1.8,7.5,1.2,9.9c12.2,9.5,34,13.4,52.4,13.4s10.8-.4,15.3-1c.8,27-1,28.4-21,29.9-15.5,1.2-25.7,1.5-34.8-.7-1.5-.3-3.5.1-5.1,1.1h0ZM308.6,458.2c-2.6-17.4-2.2-36.2,1.2-57,8.8,1.1,18.6.7,31.9-.3,34.1-2.8,35-16.4,33.8-49.9-.4-9.7-1-13.8-1.5-17.1-.3-1.7-.5-3.1-.6-5.1,9.4.5,21.6-.6,24.3-15,1.5-8.6-5-20.6-15.9-39.2-5.8-9.8-12.2-20.8-13.2-26-.9-5.1-1.8-10.1-2.9-14.9,34.7-.5,67.6-9,96.9-23.6,2.5,12.9,3.7,26.4,3.7,40.1.1,98.9-66.7,182.5-157.6,208.1h0Z"/>
</svg>