<?xml version="1.0" encoding="UTF-8"?>
<svg id="Layer_1" data-name="Layer 1" xmlns="http://www.w3.org/2000/svg" viewBox="0 0 443.69 443.69">
  <defs>
    <style>
      .clsm-1 {
        fill: #0081fb;
        stroke-width: 0px;
      }
    </style>
  </defs>
  <path class="clsm-1" d="M93.54,353.94c-20.25,0-37.53-8.63-50.14-25.13-13.14-17.18-20.02-43.79-20.03-61.2-.02-50.76,8.16-76.99,23.25-107.64,16.67-33.86,37.78-55.19,64.52-65.2,16.39-6.13,34.19-6.41,51.46-.79,22.15,7.2,43.8,23.88,64.37,49.61,24.67-32.83,55.5-53.29,80.92-53.57.25,0,.49,0,.74,0,28.16,0,55.98,17.66,80.51,51.12,12.33,16.82,21.16,42.94,27.79,82.18,6.44,38.15,3.97,70.34-7.15,93.1-12.66,25.91-30.73,37.47-58.59,37.47h-.16c-48.88-.08-81.29-57.67-104.96-99.72-4-7.11-14.48-24.47-24.13-40.35-5.71,10.42-24.17,44.01-29.57,52.39-3.26,5.06-6.39,10.03-9.42,14.83-24.86,39.46-44.5,70.62-85.56,72.79-1.29.07-2.58.1-3.85.1ZM137.77,93.97c-10.24,0-18.85,2.17-25.23,4.55-25.74,9.63-46.13,30.31-62.34,63.22-15.16,30.79-22.86,55.62-22.84,105.87,0,16.74,6.61,42.3,19.21,58.77,12.57,16.43,30.08,24.54,50.6,23.46,39-2.06,57.2-30.94,82.39-70.93,3.03-4.81,6.17-9.79,9.44-14.87,5.68-8.82,26.83-47.39,30.53-54.17l-15.2-24.86c-9.49,14.73-55.19,85.55-65.56,100.34-14.9,21.24-29.32,32.14-42.86,32.41-9.62.16-18.21-4.75-24.89-14.27-6-8.56-8.88-25-9.07-37.49-.56-36.92,11.29-81.16,28.17-105.2,15-21.37,31.62-32.67,48.06-32.67,12.47.02,37.35,6.55,66.17,49.46l.07-.1,1.84,3.02c1.34,2.18,8.69,14.16,17.08,27.93l.81,1.32h0c10,16.43,21.22,35,25.4,42.44,23.18,41.19,54.93,97.6,101.48,97.68h.16c26.48,0,42.93-10.54,54.99-35.22,10.75-22,13.1-53.36,6.8-90.68h0c-6.52-38.61-15.12-64.19-27.07-80.49-16.7-22.78-43.82-49.89-77.98-49.48-24.43.27-54.38,20.49-78.43,52.86,2.64,3.72,8.24,12.44,14.91,23.04,36.07-50.67,57.08-55.13,82.93-45.52,13.64,5.07,24.58,18.25,31.35,28.41,8.64,12.96,15.62,28.8,19.16,43.46,4.45,18.43,7.38,36.37,8.47,51.86,1.25,17.7.17,32.24-3.2,43.21-3.51,11.43-7.24,19.8-23.48,23.47-11.24,2.54-20.5-2.31-26.49-6.18-9.27-5.99-38.51-49.58-55.35-77.16-7.13-11.67-22.63-36.91-35.05-56.69l-17.36-26.73c-20.54-26.21-42.08-43.12-64.03-50.25-8.52-2.77-16.45-3.82-23.59-3.82ZM138.25,132.14c-15.14,0-30.62,10.71-44.85,30.97-16.45,23.43-27.99,66.68-27.44,102.84.17,11.49,2.86,27.42,8.34,35.25,5.88,8.39,13.34,12.72,21.53,12.57,12.19-.24,25.54-10.57,39.66-30.71,10.78-15.37,60-91.72,66.49-101.8-28.18-42.66-52-49.11-63.74-49.13ZM246.72,173.59c12.36,19.7,27.47,44.3,34.49,55.79,19.53,31.97,46.55,71,54.11,75.89,5.38,3.48,13.67,7.85,23.44,5.64,14.21-3.21,17.24-9.98,20.54-20.75,6.08-19.83,4.14-53.71-5.34-92.96-6.67-27.65-26.46-61.04-48.01-69.05-11.5-4.28-21.63-5.98-33.68-.4-13.38,6.19-27.87,20.77-45.55,45.84Z"/>
</svg>