<?xml version="1.0" encoding="UTF-8"?>
<svg id="Layer_1" data-name="Layer 1" xmlns="http://www.w3.org/2000/svg" viewBox="0 0 443.69 443.69">
  <defs>
    <style>
      .clsg-1 {
        fill: #3c8bd9;
      }

      .clsg-1, .clsg-2, .clsg-3 {
        stroke-width: 0px;
      }

      .clsg-2 {
        fill: #fabc04;
      }

      .clsg-3 {
        fill: #34a852;
      }
    </style>
  </defs>
  <path class="clsg-2" d="M164.84,326.11c-.62,0-1.19-.24-1.6-.69-.71-.76-.65-1.67-.6-2.47.04-.6.09-1.34-.04-2.26-.04-.27-.02-.54.05-.81,5.16-18.89,1.04-35.92-12.25-50.64-7.75-8.48-17.8-13.66-29.88-15.36-15.14-2.15-28.53,1.57-40.93,11.36-.8.61-1.49,1.35-2.23,2.12-1.2,1.26-2.56,2.7-4.46,3.65-.28.14-.58.21-.89.21-1.35,0-2.4-.76-2.82-2.03-.18-.54-.12-1.14.17-1.63,1.73-3,7.84-13.6,16.33-28.35,23.23-40.36,62.1-107.89,81.25-140.88.2-.38.42-.69.59-.94.13-.18.24-.33.3-.46.46-.91,1.53-1.33,2.48-.98.96.35,1.49,1.37,1.25,2.36-.32,1.29-.7,2.63-1.09,4.01-1.04,3.68-2.11,7.49-2.29,10.96-.36,10.15,2.08,19.44,7.71,29.21,6.44,11.06,13.18,22.35,19.69,33.27,8.2,13.74,16.68,27.95,24.71,41.95.59,1.01,1.14,2.03,1.67,3.02.66,1.24,1.29,2.4,1.99,3.53.39.63.41,1.42.04,2.06-7.51,13.02-15.34,26.48-23.94,41.14-2.98,5.15-5.97,10.32-8.96,15.49-8,13.84-16.28,28.15-24.5,42.17-.36.61-1.02.99-1.73.99ZM112.59,249.31c2.79,0,5.62.2,8.49.61,13.02,1.84,23.88,7.44,32.28,16.63,12.87,14.24,17.73,30.51,14.5,48.44,6.64-11.39,13.28-22.87,19.74-34.04,2.99-5.17,5.98-10.34,8.97-15.5,8.38-14.28,16.02-27.41,23.35-40.11-.53-.91-1.02-1.82-1.5-2.72-.51-.95-1.04-1.94-1.61-2.9-8.03-13.99-16.5-28.19-24.69-41.91-6.52-10.93-13.26-22.23-19.72-33.32-6.01-10.45-8.63-20.43-8.24-31.39.04-.81.12-1.63.24-2.45-20.43,35.29-54.25,94.05-75.26,130.56-4.95,8.6-9.09,15.8-12.03,20.89,0,0,.02-.01.02-.02,10.75-8.49,22.65-12.77,35.46-12.77Z"/>
  <path class="clsg-3" d="M112.82,361.53c-1.5,0-3.01-.05-4.55-.15-26.63-1.89-47.8-21.88-51.48-48.6-1.75-12.76.77-24.92,7.47-36.13,5.55-8.39,11.04-13.37,13.82-15.59h0c15.52-12.27,35.95-15.34,54.63-8.2,18.62,7.11,31.75,22.91,35.12,42.28,1.67,9.39.98,18.78-2.12,28.7-.14.84-.3,1.55-.58,2.39l-.15.35c-.43.77-.85,1.56-1.26,2.35-.72,1.36-1.46,2.77-2.32,4.15-11.43,18.89-27.77,28.45-48.6,28.45ZM80.57,264.19c-2.6,2.08-7.73,6.74-12.93,14.59-6.17,10.33-8.51,21.62-6.89,33.45,3.42,24.83,23.07,43.39,47.78,45.15,21.38,1.38,38.04-7.52,49.47-26.41.79-1.27,1.5-2.61,2.19-3.91.4-.76.8-1.52,1.22-2.27.18-.57.28-1.07.39-1.75l.06-.27c2.93-9.34,3.6-18.15,2.03-26.94-3.13-17.97-15.32-32.64-32.61-39.24-17.36-6.63-36.32-3.79-50.72,7.59Z"/>
  <path class="clsg-1" d="M331.44,362.06c-20.42,0-38.95-10.76-49.71-29.41-19.74-34.38-61.08-105.61-61.49-106.32-.42-.72-42.92-73.12-48.55-83.07-5.27-9.19-7.81-19.33-7.53-30.13.38-5.11,1-10.89,3.65-16.18.29-.62,7.75-16.36,14.42-22.76,12.79-12.46,30.25-18.11,47.92-15.51,17.72,2.61,32.88,13.11,41.58,28.81,8.81,16.03,18.12,32.08,27.12,47.62,4.51,7.78,9.18,15.83,13.73,23.78,6.92,12.03,13.86,24.05,20.81,36.09,15.63,27.07,31.79,55.07,47.44,82.68,9.32,16.36,9.94,35.51,1.69,52.52-8.14,16.79-23.94,28.47-42.28,31.25-2.96.44-5.9.66-8.8.66ZM221.73,62.05c-13.66,0-26.72,5.27-36.71,15h-.01c-6.14,5.9-13.52,21.48-13.59,21.64-2.34,4.69-2.91,10.01-3.25,14.64-.25,9.96,2.11,19.39,7.01,27.95,5.62,9.93,48.1,82.31,48.52,83.04.42.72,41.76,71.96,61.51,106.35,11.44,19.83,32.31,30.1,54.44,26.79,17.03-2.58,31.71-13.43,39.27-29.03,7.67-15.81,7.09-33.6-1.57-48.8-15.64-27.6-31.8-55.59-47.42-82.66-6.95-12.03-13.89-24.07-20.81-36.1-4.54-7.94-9.21-15.98-13.72-23.76-9.02-15.55-18.34-31.63-27.17-47.69-8.09-14.59-22.18-24.36-38.66-26.78-2.62-.39-5.24-.58-7.84-.58Z"/>
</svg>