<?xml version="1.0" encoding="UTF-8"?>
<svg id="Layer_1" data-name="Layer 1" xmlns="http://www.w3.org/2000/svg" viewBox="0 0 443.69 443.69">
  <defs>
    <style>
      .clsms-1 {
        fill: #1581cc;
        stroke-width: 0px;
      }
    </style>
  </defs>
  <path class="clsms-1" d="M238.84,364.58c-.12,7.75-6.05,9.39-11.01,9.4-15.6.04-65.03.04-146.92.02h-1.89c-9.94,0-12.97-2.99-12.98-12.8,0-7.3,0-43.27-.01-78.19h.02s-.03-1.99-.03-1.99c0-28.8,0-56.51,0-66.4h0c0-.63.02-1.23.05-1.81.45-8.48,4.26-11.7,13.51-11.72.02,0,.04,0,.06,0h0l52.96-.08h.13s.38,0,.38,0l24.63.02c22.98.02,45.97.04,68.95.07,7.92.01,11.45,3.47,11.46,11.21,0,13.44.21,35.91.44,57.2-.01,3.89-.03,7.82-.07,11.76l-.02,1.76h.05l.53,28.5c.1,7.65.16,12.48.16,12.68l.02,1.16.04.02c-.22,19.06-.42,34.34-.49,39.2ZM390.96,110.11c-2.26-11.37-5.27-24.48-12.46-36.15-5.08-8.24-10.28-9.77-17.91-5.28-8.08,3.05-225.14,89.45-227.37,90.34-.12.05-.22.1-.32.17h-.2c-11.57-.05-50.98-.22-72.26-.1-6.07.03-9.99,3.78-11.67,11.15-7.45,32.77-7.61,65.83-.49,98.27,2.31,10.51,5.23,12.77,14.26,14.06,0,35.06,0,71.3.01,78.64,0,11.71,4.62,16.28,16.46,16.28h1.89c30.74,0,56.9.01,78.42.01,35.8,0,58.75-.01,68.5-.03,9.08-.02,14.36-4.7,14.49-12.84.07-4.75.26-19.44.48-37.87,14.57,5.86,92.51,37.16,118.41,47.51.21.08.43.12.65.12.08,0,.15-.02.23-.03,1.39.54,3.12.94,5,.94,3.64,0,7.82-1.47,11-6.15,4.31-6.34,6.73-13.41,8.53-19.49,8.72-29.44,11.3-59.39,12.68-84.8,3.28-60.5.63-109.68-8.33-154.75ZM354.49,74.82c-2.12,3.24-3.94,7.35-5.5,11.95-1.23,3.19-2.33,6.6-3.05,10.18-.19.92-.37,1.84-.55,2.76-1.81,7.77-3.21,15.89-4.44,23.07l-.33,1.89c-1.75,10.12-2.88,21.15-3.54,34.57-28.5-.19-131.6-.85-178.58-.85-5.66,0-10.5,0-14.3.03,38.03-15.14,176.67-70.31,210.3-83.6ZM350.48,163.38c1.57.84,2.59,2.45,3.08,4.87.23,1.16.46,2.32.67,3.49,4.83,28.03,5.2,57.8,1.15,88.65-.4,2.82-.81,5.62-1.22,8.4-.11.72-.21,1.44-.32,2.16-.01.07-.02.13-.03.2-.31,1.9-.56,3.3-.92,4.36-.75,1.61-2.16,2.64-4.52,3.28-1.62.28-5.71.51-8.01.61-.82-15.49-3.86-79.71.19-116.67.27,0,.54,0,.81.01,1.77.03,3.6.07,5.42-.04,1.59.09,2.78.29,3.69.66ZM133.03,164.34c.08-.54.21-1,.41-1.42.17-.14.38-.23.62-.23h0c5.06,0,20.07,0,39.83,0,55.11,0,144.84,0,162.44.04-.46,2.62-.89,7.63-1.23,17.55-.36,10.53-.54,24.88-.5,40.4.02,8.63.21,47.99,1.87,58.87h-94.25c-.04-3.3-.07-6.67-.11-10.06.04-15.81-.1-30.91-.22-42.56-.05-4.81-.09-9.09-.11-12.67v-.63c0-1.42-.01-2.88-.2-4.37-.75-5.78-2.44-9.25-9.15-11.03-2.63-.7-5.22-.69-7.78-.7h-.46c-18.56,0-80.08,0-91.41,0l.25-33.19ZM62.52,279.05c-7.16-1.04-8.93-2.61-10.83-11.28-7.01-31.94-6.85-64.49.49-96.75,1.71-7.53,5.55-8.42,8.29-8.44,5.41-.03,11.98-.04,18.98-.04,18.48,0,39.88.08,50.24.13-.08.33-.13.67-.13,1.02v.45c-.09.71-.12,1.41-.12,2.08-.05,7.75-.12,25.66-.14,31.3-7.16,0-34.7,0-49.65.08-11.92.07-16.44,3.87-17.02,14.86-.03.54-.04,1.1-.05,1.67,0,.16-.01.3-.01.47l-.02,2.45c-.1,10.82-.32,35.8-.01,62.01ZM242.81,323.01l-.21-11.5c-.09-7.4-.22-17.44-.34-28.49,6.28.02,26.71.07,47.17.1,12.29.02,24.59.03,33.83.01,4.62,0,8.48-.02,11.19-.04,1.15,0,2.04-.01,2.74-.03.59,5.02,1.65,13.44,3.11,23.05,1.53,11.87,3.61,23.86,6.81,35.68,1.73,6.96,3.64,13.14,5.71,17.62,0,.02.02.04.03.06.07.18.13.37.21.56.94,2.4,1.82,4.56,2.66,6.42.33.77.67,1.53,1.03,2.26-31.26-12.51-104.21-41.81-113.93-45.72ZM395.81,264.68c-1.36,25.21-3.92,54.9-12.54,84-1.72,5.82-4.03,12.58-8.07,18.53-4.61,6.79-11.44,4.37-13.02,3.35-.78-.5-1.92-2.44-3.41-5.76-.4-.95-.79-1.93-1.16-2.87-.52-1.31-1.01-2.54-1.53-3.69-2.26-5.86-4.15-11.81-5.76-17.82-2.65-10.77-4.87-23.45-6.56-34.58-.99-7.67-1.75-15.3-2.43-22.81,1.06.02,2.15.01,3.24-.09,1.2-.11,2.98-.28,4.83-.8,4.09-.84,5.81-2.74,6.74-5.4.35-.8.61-1.69.76-2.71.13-.88.26-1.76.39-2.64.56-3.44,1.05-6.87,1.5-10.29,1.13-7.96,2.11-16.05,2.46-24.1,1.12-25.46-.03-46.51-3.6-65.86,0-.03-.01-.06-.02-.1l-.11-.64c-.82-4.78-1.57-8.02-4.75-9.75-1.65-1.08-3.71-1.57-6.12-1.43-.04,0-.08,0-.11,0-.93-.05-1.95-.06-3.08-.04-.82.02-1.94.03-2.89.04.57-6.85,2.88-31.63,8.15-58.53,1.03-4.47,2.2-8.82,3.54-12.78,1.41-3.63,3-6.96,4.43-9.77.79-1.55,1.61-2.82,2.51-3.86.01-.01.02-.03.03-.04.17-.19.34-.37.51-.55.15-.15.3-.3.46-.45.1-.1.21-.19.31-.29.15-.13.31-.25.47-.38.13-.1.26-.21.4-.31.27-.19.55-.38.83-.53,6.07-3.62,9.18-2.68,13.31,4.02,6.89,11.18,9.81,23.93,12.01,35,8.9,44.78,11.53,93.68,8.27,153.89Z"/>
  <path class="clsms-1" d="M160.71,236.47h-16.51l-36.27,96.92h14.45l8.7-25.29h42.07l8.99,25.17h14.55l-35.98-96.81ZM134.37,297.6l17.62-51.66,17.81,51.66h-35.43Z"/>
</svg>